<svg width="88" height="88" viewBox="0 0 88 88" fill="none" xmlns="http://www.w3.org/2000/svg">
<path fill-rule="evenodd" clip-rule="evenodd" d="M81.8008 85.2399C78.7212 82.6267 74.0804 82.6267 71.0008 85.2399C67.9212 87.8531 63.2804 87.8531 60.2008 85.2399C57.1212 82.6267 52.4804 82.6267 49.4008 85.2399C46.3212 87.8531 41.6804 87.8531 38.6008 85.2399C35.5212 82.6267 30.8804 82.6267 27.8008 85.2399C24.7212 87.8531 20.0804 87.8531 17.0008 85.2399C13.9212 82.6267 9.2804 82.6267 6.20078 85.2399C4.10841 87.0154 0.800781 85.5974 0.800781 82.925V5.07464C0.800781 2.40217 4.10841 0.984229 6.20078 2.75972C9.2804 5.37294 13.9212 5.37293 17.0008 2.75972C20.0804 0.146501 24.7212 0.146501 27.8008 2.75972C30.8804 5.37293 35.5212 5.37293 38.6008 2.75972C41.6804 0.146501 46.3212 0.146501 49.4008 2.75972C52.4804 5.37293 57.1212 5.37293 60.2008 2.75972C63.2804 0.146501 67.9212 0.146501 71.0008 2.75972C74.0804 5.37293 78.7212 5.37294 81.8008 2.75972C83.8931 0.984229 87.2008 2.40217 87.2008 5.07464V82.925C87.2008 85.5974 83.8931 87.0154 81.8008 85.2399ZM18.8008 43.9998C18.8008 42.0116 20.4126 40.3998 22.4008 40.3998H65.6008C67.589 40.3998 69.2008 42.0116 69.2008 43.9998C69.2008 45.988 67.589 47.5998 65.6008 47.5998H22.4008C20.4126 47.5998 18.8008 45.988 18.8008 43.9998ZM22.4008 23.5998C20.4126 23.5998 18.8008 25.2116 18.8008 27.1998C18.8008 29.188 20.4126 30.7998 22.4008 30.7998H65.6008C67.589 30.7998 69.2008 29.188 69.2008 27.1998C69.2008 25.2116 67.589 23.5998 65.6008 23.5998H22.4008ZM18.8008 60.7998C18.8008 58.8116 20.4126 57.1998 22.4008 57.1998H65.6008C67.589 57.1998 69.2008 58.8116 69.2008 60.7998C69.2008 62.788 67.589 64.3998 65.6008 64.3998H22.4008C20.4126 64.3998 18.8008 62.788 18.8008 60.7998Z" fill="#D5D5D5"/>
</svg>
