<svg width="110" height="93" viewBox="0 0 110 93" fill="none" xmlns="http://www.w3.org/2000/svg">
<path d="M61.0748 91.1344C85.2012 91.1344 104.761 71.5747 104.761 47.3621C104.761 23.1495 85.1151 3.58984 61.0748 3.58984C36.9483 3.58984 17.3887 23.1495 17.3887 47.3621C17.3887 71.5747 36.9483 91.1344 61.0748 91.1344Z" fill="#F1F3F9" stroke="#D6DCE8" stroke-width="1.87546" stroke-miterlimit="10"/>
<path d="M101.918 18.6681C103.869 18.6681 105.45 17.0865 105.45 15.1353C105.45 13.1842 103.869 11.6025 101.918 11.6025C99.9665 11.6025 98.3848 13.1842 98.3848 15.1353C98.3848 17.0865 99.9665 18.6681 101.918 18.6681Z" fill="#F1F3F9"/>
<path d="M107.087 4.88193C108.42 4.88193 109.5 3.80175 109.5 2.46929C109.5 1.13682 108.42 0.0566406 107.087 0.0566406C105.755 0.0566406 104.675 1.13682 104.675 2.46929C104.675 3.80175 105.755 4.88193 107.087 4.88193Z" fill="#F1F3F9"/>
<path d="M19.7154 18.5821C21.0478 18.5821 22.128 17.5019 22.128 16.1695C22.128 14.837 21.0478 13.7568 19.7154 13.7568C18.3829 13.7568 17.3027 14.837 17.3027 16.1695C17.3027 17.5019 18.3829 18.5821 19.7154 18.5821Z" fill="#F1F3F9"/>
<path d="M4.98063 65.1116C7.45521 65.1116 9.46125 63.1056 9.46125 60.631C9.46125 58.1564 7.45521 56.1504 4.98063 56.1504C2.50604 56.1504 0.5 58.1564 0.5 60.631C0.5 63.1056 2.50604 65.1116 4.98063 65.1116Z" fill="#F1F3F9"/>
<path d="M73.7416 24.0966L86.925 71.4878C87.3558 73.125 86.408 74.7621 84.7708 75.193L38.3274 87.5147C36.6903 87.9455 35.0531 86.9977 34.6223 85.3605L18.4231 24.1828C17.9923 22.5456 18.9401 20.9085 20.5773 20.4776L54.182 11.6025L73.7416 24.0966Z" fill="white" stroke="#D6DCE8" stroke-width="1.87546" stroke-miterlimit="10"/>
<path d="M73.0523 54.0819L47.978 60.7167L45.2207 61.406L36.8626 63.6464C36.518 63.7325 36.2595 64.1633 36.4318 64.5942C36.518 65.025 36.9488 65.2835 37.2935 65.1973L45.6516 62.957L48.4089 62.2677L73.4831 55.6329C73.8278 55.5468 74.0863 55.1159 73.914 54.6851C73.8278 54.2543 73.397 53.9958 73.0523 54.0819Z" fill="#D6DCE8"/>
<path d="M71.4151 48.2224L62.1092 50.635L58.9211 51.4967L35.3978 57.7868C35.0531 57.873 34.7946 58.3038 34.967 58.7346C35.0531 59.1654 35.484 59.4239 35.8286 59.3378L59.4381 53.0477L62.6262 52.186L71.9321 49.7734C72.2768 49.6872 72.5353 49.2564 72.363 48.8255C72.1906 48.4809 71.7598 48.1362 71.4151 48.2224Z" fill="#D6DCE8"/>
<path d="M70.0369 42.2774L67.6243 42.8806L65.2116 43.4838L33.7611 51.8419C33.4164 51.928 33.1579 52.3589 33.3302 52.7897C33.4164 53.2205 33.8472 53.479 34.1919 53.3928L65.6425 45.0348L68.3136 44.3454L70.4677 43.7423C70.8124 43.6561 71.0709 43.2253 70.8986 42.7944C70.8124 42.4498 70.4677 42.1913 70.0369 42.2774Z" fill="#D6DCE8"/>
<path d="M55.4741 72.7804L53.7508 73.2112C53.4061 73.2974 52.9753 73.0389 52.8891 72.6081C52.803 72.1772 52.9753 71.7464 53.32 71.6602L55.0433 71.2294C55.388 71.1432 55.8188 71.4017 55.905 71.8326C55.9911 72.3496 55.8188 72.6942 55.4741 72.7804Z" fill="#D6DCE8"/>
<path d="M50.2185 74.1593L40.3094 76.7443C39.9647 76.8304 39.5339 76.5719 39.4477 76.1411C39.3616 75.7103 39.5339 75.2794 39.8786 75.1933L49.7876 72.6083C50.1323 72.5221 50.5631 72.7806 50.6493 73.2115C50.8216 73.6423 50.6493 74.0731 50.2185 74.1593Z" fill="#D6DCE8"/>
<path d="M68.8306 36.3318L60.9895 38.3997L59.0938 38.9167L32.2962 45.9823C31.9516 46.0685 31.6931 46.4993 31.8654 46.9302C31.9516 47.361 32.3824 47.6195 32.7271 47.5333L59.4385 40.5539L61.3341 40.0369L69.0891 37.9689C69.5199 37.8827 69.6922 37.4519 69.6061 36.9349C69.6061 36.5902 69.1752 36.2456 68.8306 36.3318Z" fill="#D6DCE8"/>
<path d="M50.3042 23.3213L28.0734 29.1806C27.5564 29.3529 27.0394 29.0083 26.8671 28.4913C26.6948 27.9743 27.0394 27.4573 27.5564 27.285L49.7872 21.4257C50.3042 21.2534 50.8212 21.598 50.9935 22.115C51.1659 22.632 50.8212 23.149 50.3042 23.3213Z" fill="#D6DCE8"/>
<path d="M38.0687 32.2823L29.5383 34.5226C29.0213 34.6949 28.5043 34.3503 28.3319 33.8333C28.1596 33.3163 28.5043 32.7993 29.0213 32.6269L37.4655 30.3866C37.9825 30.2143 38.4995 30.559 38.6718 31.076C38.8442 31.5929 38.4995 32.1099 38.0687 32.2823Z" fill="#D6DCE8"/>
<path d="M54.1816 11.6025L57.6283 24.6998C58.1453 26.5092 60.1271 27.6294 61.9366 27.1124L73.7413 24.0966" fill="#D6DCE8"/>
<path d="M108.552 37.4523L100.625 86.0499C100.366 87.687 98.7289 88.8072 97.0917 88.4625L49.8728 80.1906C48.2357 79.9321 47.1155 78.295 47.374 76.6578L58.3171 14.3599C58.5756 12.7227 60.2127 11.6026 61.8499 11.9472L96.1439 17.9788L108.552 37.4523Z" fill="white" stroke="#D6DCE8" stroke-width="1.87546" stroke-miterlimit="10"/>
<path d="M95.3682 64.422L69.8631 59.9414L67.1058 59.4244L58.5754 57.9596C58.2307 57.8734 57.7999 58.2181 57.7999 58.6489C57.7137 59.0797 57.9722 59.5106 58.3169 59.5967L66.8473 61.0616L69.6046 61.5786L95.1097 66.0592C95.4544 66.1453 95.8852 65.8007 95.8852 65.3699C95.9714 64.939 95.7991 64.5082 95.3682 64.422Z" fill="#D6DCE8"/>
<path d="M96.4022 58.4767L86.9239 56.8396L83.7358 56.2364L59.6955 52.0143C59.3508 51.9281 58.92 52.2728 58.92 52.7036C58.8339 53.1344 59.0924 53.5653 59.437 53.6514L83.4773 57.8735L86.6654 58.4767L96.1437 60.1139C96.4883 60.2 96.9192 59.8554 96.9192 59.4245C97.0053 58.9937 96.7468 58.5629 96.4022 58.4767Z" fill="#D6DCE8"/>
<path d="M97.6091 52.4455L95.1103 52.0146L92.6115 51.5838L60.5578 45.983C60.2131 45.8969 59.7823 46.2415 59.7823 46.6723C59.6962 47.1032 59.9547 47.534 60.2993 47.6202L92.353 53.221L95.1103 53.7379L97.2645 54.0826C97.6091 54.1688 98.04 53.8241 98.04 53.3933C98.2123 52.9625 98.04 52.5316 97.6091 52.4455Z" fill="#D6DCE8"/>
<path d="M71.5871 74.073L69.8638 73.8145C69.5191 73.7283 69.2606 73.2975 69.3468 72.8667C69.4329 72.4359 69.7776 72.0912 70.1223 72.1774L71.8456 72.4359C72.1903 72.522 72.4488 72.9528 72.3626 73.3837C72.2764 73.9007 71.9318 74.073 71.5871 74.073Z" fill="#D6DCE8"/>
<path d="M66.3309 73.1257L56.2495 71.4024C55.9049 71.3162 55.6464 70.8854 55.7325 70.4546C55.8187 70.0237 56.1634 69.6791 56.508 69.7652L66.5894 71.4886C66.9341 71.5747 67.1926 72.0056 67.1064 72.4364C67.0203 72.9534 66.6756 73.2119 66.3309 73.1257Z" fill="#D6DCE8"/>
<path d="M98.9868 46.5863L90.9734 45.2077L88.9915 44.863L61.677 40.0377C61.3323 39.9515 60.9015 40.2962 60.9015 40.727C60.8153 41.1579 61.0738 41.5887 61.4185 41.6749L88.7331 46.5001L90.7149 46.8448L98.6421 48.2235C99.073 48.3096 99.4176 47.965 99.5038 47.5341C99.59 47.1033 99.3315 46.6725 98.9868 46.5863Z" fill="#D6DCE8"/>
<path d="M87.7003 27.0268L65.0387 23.0631C64.5217 22.977 64.177 22.46 64.2632 21.943C64.3494 21.426 64.8664 21.0813 65.3834 21.1675L88.045 25.1311C88.562 25.2173 88.9066 25.7343 88.8205 26.2513C88.7343 26.6821 88.2173 27.1129 87.7003 27.0268Z" fill="#D6DCE8"/>
<path d="M72.7932 29.9559L64.0904 28.4049C63.5735 28.3188 63.2288 27.8018 63.315 27.2848C63.4011 26.7678 63.9181 26.4231 64.4351 26.5093L73.0517 28.0603C73.5687 28.1464 73.9134 28.6634 73.8272 29.1804C73.741 29.6974 73.224 30.0421 72.7932 29.9559Z" fill="#D6DCE8"/>
<path d="M96.0582 17.9785L93.7317 31.3342C93.387 33.2299 94.7657 35.0394 96.6613 35.384L108.552 37.452" fill="#D6DCE8"/>
<path d="M76.0675 81.4827C86.6797 81.4827 95.2825 72.8799 95.2825 62.2677C95.2825 51.6556 86.6797 43.0527 76.0675 43.0527C65.4554 43.0527 56.8525 51.6556 56.8525 62.2677C56.8525 72.8799 65.4554 81.4827 76.0675 81.4827Z" fill="white"/>
<path d="M103.934 91.9443C103.189 91.9443 102.443 91.6459 101.846 90.9747L89.3905 78.5191L88.9429 78.8174C84.9154 81.8008 80.2166 83.3671 75.4432 83.3671C69.7002 83.3671 63.9572 81.055 59.7059 77.0274C55.2308 72.7761 52.7695 67.0331 52.7695 60.768C52.7695 48.3124 62.913 38.1689 75.3686 38.1689C83.8712 38.1689 91.3296 42.644 95.3572 50.2516C99.3102 57.7846 98.7881 66.5856 93.9401 73.6711L93.6418 74.1186L106.172 86.6488C107.44 87.9167 107.142 89.1847 106.918 89.8559C106.321 91.0493 105.128 91.9443 103.934 91.9443ZM75.3686 44.3594C66.2693 44.3594 58.96 51.7433 58.96 60.768C58.96 71.0606 67.3881 77.2511 75.5923 77.2511C80.5895 77.2511 85.1391 75.0136 88.3463 70.9861C92.2992 66.0635 92.9705 59.4255 90.2109 53.6825C87.3767 47.9395 81.7083 44.3594 75.3686 44.3594Z" fill="#D6DCE8" stroke="#AAB2C5" stroke-width="1.87546" stroke-miterlimit="10"/>
<path d="M74.258 65.3701C74.1718 65.0254 74.1718 64.6807 74.1718 64.2499C74.1718 62.7851 74.775 61.4926 76.3259 60.3724L77.6184 59.4246C78.3939 58.8215 78.7386 58.1321 78.7386 57.2705C78.7386 56.0642 77.8769 54.8578 76.0674 54.8578C74.1718 54.8578 73.3101 56.4088 73.3101 57.8736C73.3101 58.2183 73.3101 58.4768 73.3963 58.7353L69.9497 58.6491C69.8635 58.3045 69.7773 57.8736 69.7773 57.4428C69.7773 54.5132 71.9315 51.7559 75.9813 51.7559C80.1172 51.7559 82.3576 54.427 82.3576 57.0981C82.3576 59.2523 81.2374 60.7171 79.6864 61.8373L78.5663 62.6128C77.6184 63.3021 77.1014 64.1637 77.1014 65.1977V65.3701H74.258ZM75.7228 67.0934C76.9291 67.0934 77.8769 68.0412 77.8769 69.2475C77.8769 70.4539 76.9291 71.4017 75.7228 71.4017C74.5165 71.4017 73.5686 70.4539 73.5686 69.2475C73.6548 68.1274 74.5165 67.0934 75.7228 67.0934Z" fill="#B2C0D1"/>
</svg>
