<svg width="210" height="177" viewBox="0 0 210 177" fill="none" xmlns="http://www.w3.org/2000/svg">
<path d="M97.6689 175.4C145.732 175.4 184.697 136.434 184.697 88.1999C184.697 39.9653 145.732 1 97.6689 1C49.6059 1 10.6406 39.9653 10.6406 88.1999C10.6406 136.434 49.6059 175.4 97.6689 175.4Z" fill="#F1F3F9" stroke="#D6DCE8" stroke-width="2" stroke-miterlimit="10"/>
<path d="M194.659 52.3246C198.546 52.3246 201.697 49.1737 201.697 45.2868C201.697 41.3999 198.546 38.249 194.659 38.249C190.772 38.249 187.621 41.3999 187.621 45.2868C187.621 49.1737 190.772 52.3246 194.659 52.3246Z" fill="#F1F3F9"/>
<path d="M204.955 24.6883C207.609 24.6883 209.761 22.5364 209.761 19.882C209.761 17.2275 207.609 15.0757 204.955 15.0757C202.3 15.0757 200.148 17.2275 200.148 19.882C200.148 22.5364 202.3 24.6883 204.955 24.6883Z" fill="#F1F3F9"/>
<path d="M4.80629 57.3025C7.46074 57.3025 9.61259 55.1507 9.61259 52.4962C9.61259 49.8418 7.46074 47.6899 4.80629 47.6899C2.15185 47.6899 0 49.8418 0 52.4962C0 55.1507 2.15185 57.3025 4.80629 57.3025Z" fill="#F1F3F9"/>
<path d="M13.7346 161.839C18.6642 161.839 22.6605 157.842 22.6605 152.913C22.6605 147.983 18.6642 143.987 13.7346 143.987C8.80489 143.987 4.80859 147.983 4.80859 152.913C4.80859 157.842 8.80489 161.839 13.7346 161.839Z" fill="#F1F3F9"/>
<path d="M151.573 37.3902V108.97C151.573 113.261 147.968 116.866 143.677 116.866H25.2359C20.9446 116.866 17.3398 113.433 17.3398 108.97V37.3902C17.3398 33.0989 20.9446 29.4941 25.2359 29.4941H143.677C147.968 29.4941 151.573 33.0989 151.573 37.3902Z" fill="#F1F3F9" stroke="#D6DCE8" stroke-width="2" stroke-miterlimit="10"/>
<path d="M172.682 152.913H62.6525C55.958 152.913 50.6367 147.592 50.6367 140.897V77.5572C50.6367 70.8628 55.958 65.5415 62.6525 65.5415H172.682C179.377 65.5415 184.698 70.8628 184.698 77.5572V140.897C184.698 147.592 179.377 152.913 172.682 152.913Z" fill="white" stroke="#D6DCE8" stroke-width="2" stroke-miterlimit="10"/>
<path d="M84.6223 133.174H67.1136C65.5688 133.174 64.3672 131.972 64.3672 130.427C64.3672 128.882 65.5688 127.681 67.1136 127.681H84.6223C86.1672 127.681 87.3687 128.882 87.3687 130.427C87.3687 131.972 86.1672 133.174 84.6223 133.174Z" fill="#D6DCE8"/>
<path d="M112.95 133.174H95.4418C93.8969 133.174 92.6953 131.972 92.6953 130.427C92.6953 128.882 93.8969 127.681 95.4418 127.681H112.95C114.495 127.681 115.697 128.882 115.697 130.427C115.697 131.972 114.495 133.174 112.95 133.174Z" fill="#D6DCE8"/>
<path d="M141.271 133.174H123.762C122.217 133.174 121.016 131.972 121.016 130.427C121.016 128.882 122.217 127.681 123.762 127.681H141.271C142.816 127.681 144.017 128.882 144.017 130.427C144.017 131.972 142.816 133.174 141.271 133.174Z" fill="#D6DCE8"/>
<path d="M169.595 133.174H152.086C150.541 133.174 149.34 131.972 149.34 130.427C149.34 128.882 150.541 127.681 152.086 127.681H169.595C171.14 127.681 172.341 128.882 172.341 130.427C172.341 131.972 171.14 133.174 169.595 133.174Z" fill="#D6DCE8"/>
<path d="M163.245 100.216C168.933 100.216 173.544 95.605 173.544 89.9169C173.544 84.2288 168.933 79.6177 163.245 79.6177C157.556 79.6177 152.945 84.2288 152.945 89.9169C152.945 95.605 157.556 100.216 163.245 100.216Z" fill="#AAB2C5"/>
<path d="M149.686 100.216C155.374 100.216 159.985 95.605 159.985 89.9169C159.985 84.2288 155.374 79.6177 149.686 79.6177C143.998 79.6177 139.387 84.2288 139.387 89.9169C139.387 95.605 143.998 100.216 149.686 100.216Z" fill="#D6DCE8"/>
<path d="M151.573 44.085H17.5117V60.907H151.573V44.085Z" fill="#AAB2C5"/>
<path d="M86.1711 103.477H66.9459C65.5727 103.477 64.3711 102.275 64.3711 100.902V88.5431C64.3711 87.1698 65.5727 85.9683 66.9459 85.9683H85.9994C87.3726 85.9683 88.5742 87.1698 88.5742 88.5431V100.902C88.7459 102.275 87.5443 103.477 86.1711 103.477Z" fill="#D6DCE8"/>
</svg>
